<svg xmlns="http://www.w3.org/2000/svg" viewBox="0 0 800 600" width="800" height="600">
  <defs>
    <pattern id="grid3" width="40" height="40" patternUnits="userSpaceOnUse">
      <rect width="40" height="40" fill="none" stroke="#2D1810" stroke-width="0.5" opacity="0.25"/>
    </pattern>
  </defs>
  <rect width="800" height="600" fill="#1A0E0A"/>
  <rect width="800" height="600" fill="url(#grid3)"/>
  <!-- Burial mound -->
  <ellipse cx="400" cy="320" rx="280" ry="200" fill="#2D1810"/>
  <ellipse cx="400" cy="320" rx="260" ry="180" fill="#3D2218"/>
  <!-- Earthen walls -->
  <path d="M120 320 Q200 150 400 140 Q600 150 680 320" fill="none" stroke="#5C3A28" stroke-width="15"/>
  <path d="M120 320 Q200 490 400 500 Q600 490 680 320" fill="none" stroke="#5C3A28" stroke-width="15"/>
  <!-- Central sarcophagus -->
  <rect x="330" y="280" width="140" height="80" rx="4" fill="#4A3728"/>
  <rect x="335" y="285" width="130" height="70" rx="3" fill="#5C4033"/>
  <!-- Dragon carving on sarcophagus -->
  <path d="M360 310 Q380 290 400 310 Q420 290 440 310" stroke="#8B6914" stroke-width="2" fill="none"/>
  <circle cx="370" cy="305" r="3" fill="#8B6914"/>
  <circle cx="430" cy="305" r="3" fill="#8B6914"/>
  <!-- Sarcophagus lid detail -->
  <rect x="370" y="278" width="60" height="8" rx="2" fill="#6B4F38"/>
  <!-- Passage entrances -->
  <rect x="60" y="290" width="40" height="40" rx="5" fill="#1A0E0A" opacity="0.7"/>
  <rect x="700" y="290" width="40" height="40" rx="5" fill="#1A0E0A" opacity="0.7"/>
  <rect x="370" y="460" width="60" height="30" rx="5" fill="#1A0E0A" opacity="0.7"/>
  <!-- Torches -->
  <rect x="180" y="220" width="4" height="30" fill="#78350F"/>
  <ellipse cx="182" cy="218" rx="5" ry="8" fill="#F97316" opacity="0.6"/>
  <ellipse cx="182" cy="218" rx="3" ry="5" fill="#FDE047" opacity="0.4"/>
  <rect x="616" y="220" width="4" height="30" fill="#78350F"/>
  <ellipse cx="618" cy="218" rx="5" ry="8" fill="#F97316" opacity="0.6"/>
  <ellipse cx="618" cy="218" rx="3" ry="5" fill="#FDE047" opacity="0.4"/>
  <!-- Treasure piles -->
  <ellipse cx="280" cy="360" rx="20" ry="8" fill="#78350F" opacity="0.6"/>
  <circle cx="280" cy="355" r="3" fill="#FDE047" opacity="0.5"/>
  <circle cx="275" cy="358" r="2" fill="#FDE047" opacity="0.4"/>
  <circle cx="285" cy="357" r="2.5" fill="#FDE047" opacity="0.3"/>
  <ellipse cx="520" cy="360" rx="18" ry="7" fill="#78350F" opacity="0.5"/>
  <circle cx="520" cy="355" r="2.5" fill="#FDE047" opacity="0.4"/>
  <circle cx="515" cy="357" r="2" fill="#FDE047" opacity="0.3"/>
  <!-- Dragon bones -->
  <path d="M250 400 Q280 380 300 410" stroke="#57534E" stroke-width="3" fill="none" opacity="0.4"/>
  <path d="M500 410 Q530 390 550 420" stroke="#57534E" stroke-width="3" fill="none" opacity="0.3"/>
  <!-- Dragon skull -->
  <ellipse cx="400" cy="240" rx="25" ry="18" fill="#57534E" opacity="0.25"/>
  <ellipse cx="400" cy="240" rx="18" ry="12" fill="#78716C" opacity="0.15"/>
  <!-- Smoke wisps -->
  <path d="M350 200 Q355 180 350 160" stroke="#F97316" stroke-width="1.5" fill="none" opacity="0.08"/>
  <path d="M450 210 Q455 190 450 170" stroke="#F97316" stroke-width="1.5" fill="none" opacity="0.06"/>
  <path d="M400 190 Q405 170 400 150" stroke="#F97316" stroke-width="1.5" fill="none" opacity="0.05"/>
  <!-- Label -->
  <text x="310" y="560" fill="#8B5E3C" font-family="serif" font-size="14" opacity="0.5">Dragon Barrow · Ancient Burial Chamber</text>
</svg>
