<svg xmlns="http://www.w3.org/2000/svg" viewBox="0 0 128 128" width="128" height="128">
  <defs>
    <linearGradient id="dragbg" x1="0%" y1="0%" x2="100%" y2="100%">
      <stop offset="0%" style="stop-color:#DC2626"/>
      <stop offset="100%" style="stop-color:#991B1B"/>
    </linearGradient>
  </defs>
  <circle cx="64" cy="64" r="62" fill="url(#dragbg)" stroke="#450A0A" stroke-width="3"/>
  <!-- Dragon head -->
  <ellipse cx="64" cy="44" rx="22" ry="18" fill="#FCA5A5"/>
  <!-- Snout -->
  <ellipse cx="64" cy="54" rx="12" ry="8" fill="#DC2626"/>
  <!-- Nostrils -->
  <circle cx="60" cy="52" r="2" fill="#450A0A"/>
  <circle cx="68" cy="52" r="2" fill="#450A0A"/>
  <!-- Eyes -->
  <ellipse cx="54" cy="40" rx="4" ry="5" fill="#FEF08A"/>
  <ellipse cx="74" cy="40" rx="4" ry="5" fill="#FEF08A"/>
  <circle cx="54" cy="40" r="2" fill="#450A0A"/>
  <circle cx="74" cy="40" r="2" fill="#450A0A"/>
  <!-- Horns -->
  <polygon points="50,28 44,12 56,26" fill="#FCA5A5"/>
  <polygon points="78,28 84,12 72,26" fill="#FCA5A5"/>
  <!-- Fire breath -->
  <ellipse cx="64" cy="60" rx="6" ry="4" fill="#F97316" opacity="0.8"/>
  <ellipse cx="64" cy="62" rx="4" ry="3" fill="#FDE047" opacity="0.9"/>
  <!-- Wings -->
  <path d="M40 76 Q20 60 30 90 Q35 80 44 84 Z" fill="#DC2626" opacity="0.7"/>
  <path d="M88 76 Q108 60 98 90 Q93 80 84 84 Z" fill="#DC2626" opacity="0.7"/>
  <!-- Body -->
  <rect x="46" y="72" width="36" height="30" rx="6" fill="#B91C1C"/>
  <!-- Tail -->
  <path d="M82 90 Q100 88 96 72" stroke="#B91C1C" stroke-width="6" fill="none" stroke-linecap="round"/>
  <polygon points="96,72 104,68 100,80" fill="#DC2626"/>
</svg>
