<svg xmlns="http://www.w3.org/2000/svg" viewBox="0 0 128 128" width="128" height="128">
  <defs>
    <linearGradient id="wizbg" x1="0%" y1="0%" x2="100%" y2="100%">
      <stop offset="0%" style="stop-color:#7C3AED"/>
      <stop offset="100%" style="stop-color:#3B0764"/>
    </linearGradient>
  </defs>
  <circle cx="64" cy="64" r="62" fill="url(#wizbg)" stroke="#1E1B4B" stroke-width="3"/>
  <!-- Wizard hat -->
  <polygon points="64,16 44,52 84,52" fill="#6366F1"/>
  <ellipse cx="64" cy="52" rx="22" ry="6" fill="#4F46E5"/>
  <!-- Star on hat -->
  <polygon points="64,24 66,30 72,30 68,34 70,40 64,36 58,40 60,34 56,30 62,30" fill="#FDE047"/>
  <!-- Face -->
  <ellipse cx="64" cy="62" rx="16" ry="18" fill="#FDE68A"/>
  <!-- Beard -->
  <path d="M50 68 Q64 90 78 68" fill="#D1D5DB"/>
  <!-- Eyes -->
  <ellipse cx="56" cy="58" rx="3" ry="4" fill="#1E1B4B"/>
  <ellipse cx="72" cy="58" rx="3" ry="4" fill="#1E1B4B"/>
  <!-- Glasses -->
  <circle cx="56" cy="58" r="6" fill="none" stroke="#FDE047" stroke-width="1.5"/>
  <circle cx="72" cy="58" r="6" fill="none" stroke="#FDE047" stroke-width="1.5"/>
  <line x1="62" y1="58" x2="66" y2="58" stroke="#FDE047" stroke-width="1.5"/>
  <!-- Staff -->
  <line x1="88" y1="72" x2="88" y2="104" stroke="#78350F" stroke-width="4" stroke-linecap="round"/>
  <circle cx="88" cy="68" r="6" fill="#FDE047"/>
  <circle cx="88" cy="68" r="3" fill="#F59E0B"/>
</svg>
